<svg xmlns="http://www.w3.org/2000/svg" style="display: none;">
  <symbol id="icon-floppy-big" viewBox="0 0 64 64">
    <path fill="currentColor" d="M0 0h5.161v5.161H0zM0 5.161h5.161v5.161H0zM0 10.322h5.161v5.161H0zM0 15.483h5.161v5.161H0zM0 20.644h5.161v5.161H0zM0 25.805h5.161v5.161H0zM0 30.966h5.161v5.161H0zM0 36.127h5.161v5.161H0zM0 41.288h5.161v5.161H0zM0 46.449h5.161v5.161H0zM0 51.61h5.161v5.161H0zM0 56.771h5.161v5.161H0zM0 61.932h5.161V67.093H0zM56.771 0v5.161h-5.161V0zM51.61 0v5.161h-5.161V0zM46.449 0v5.161h-5.161V0zM41.288 0v5.161h-5.161V0zM36.127 0v5.161h-5.161V0zM30.966 0v5.161h-5.161V0zM25.805 0v5.161h-5.161V0zM20.644 0v5.161h-5.161V0zM15.483 0v5.161h-5.161V0zM10.322 0v5.161H5.161V0zM61.932 5.161v5.161h-5.161V5.161zM15.483 10.322v5.161h-5.161v-5.161zM15.483 5.161v5.161h-5.161V5.161zM15.483 15.483v5.161h-5.161v-5.161zM51.61 10.322v5.161h-5.161v-5.161zM51.61 5.161v5.161h-5.161V5.161zM51.61 15.483v5.161h-5.161v-5.161zM41.288 10.322v5.161h-5.161v-5.161zM41.288 5.161v5.161h-5.161V5.161zM41.288 15.483v5.161h-5.161v-5.161zM51.61 20.644v5.161h-5.161v-5.161zM46.449 20.644v5.161h-5.161v-5.161zM41.288 20.644v5.161h-5.161v-5.161zM36.127 20.644v5.161h-5.161v-5.161zM30.966 20.644v5.161h-5.161v-5.161zM25.805 20.644v5.161h-5.161v-5.161zM20.644 20.644v5.161h-5.161v-5.161zM15.483 20.644v5.161h-5.161v-5.161zM56.771 36.127v5.161h-5.161v-5.161zM51.61 36.127v5.161h-5.161v-5.161zM46.449 36.127v5.161h-5.161v-5.161zM41.288 36.127v5.161h-5.161v-5.161zM36.127 36.127v5.161h-5.161v-5.161zM30.966 36.127v5.161h-5.161v-5.161zM25.805 36.127v5.161h-5.161v-5.161zM20.644 36.127v5.161h-5.161v-5.161zM15.483 36.127v5.161h-5.161v-5.161zM56.771 41.288v5.161h-5.161v-5.161zM15.483 41.288v5.161h-5.161v-5.161zM56.771 46.449v5.161h-5.161v-5.161zM15.483 46.449v5.161h-5.161v-5.161zM56.771 51.61v5.161h-5.161v-5.161zM15.483 51.61v5.161h-5.161v-5.161zM15.483 56.771v5.161h-5.161v-5.161zM56.771 56.771v5.161h-5.161v-5.161zM61.932 61.932V67.093h-5.161v-5.161zM56.771 61.932V67.093h-5.161v-5.161zM51.61 61.932V67.093h-5.161v-5.161zM46.449 61.932V67.093h-5.161v-5.161zM41.288 61.932V67.093h-5.161v-5.161zM36.127 61.932V67.093h-5.161v-5.161zM30.966 61.932V67.093h-5.161v-5.161zM25.805 61.932V67.093h-5.161v-5.161zM20.644 61.932V67.093h-5.161v-5.161zM15.483 61.932V67.093h-5.161v-5.161zM10.322 61.932V67.093H5.161v-5.161zM67.093 67.093h-5.161v-5.161h5.161zM67.093 61.932h-5.161v-5.161h5.161zM67.093 56.771h-5.161v-5.161h5.161zM67.093 51.61h-5.161v-5.161h5.161zM67.093 46.449h-5.161v-5.161h5.161zM67.093 41.288h-5.161v-5.161h5.161zM67.093 36.127h-5.161v-5.161h5.161zM67.093 30.966h-5.161v-5.161h5.161zM67.093 25.805h-5.161v-5.161h5.161zM67.093 20.644h-5.161v-5.161h5.161zM67.093 15.483h-5.161v-5.161h5.161zM67.093 10.322h-5.161V5.161h5.161z"/>
  </symbol>
</svg>