<svg xmlns="http://www.w3.org/2000/svg" style="display: none;">
  <symbol id="icon-floppy" viewBox="0 0 20 20">
    <path fill="currentColor" d="M0 0h1.615v1.615H0zM0 1.615h1.615V3.23H0zM0 3.23h1.615v1.615H0zM0 4.846h1.615v1.615H0zM0 6.462h1.615v1.615H0zM0 8.077h1.615v1.615H0zM0 9.692h1.615v1.615H0zM0 11.308h1.615v1.615H0zM0 12.923h1.615v1.615H0zM0 14.538h1.615v1.615H0zM0 16.154h1.615v1.615H0zM0 17.77h1.615v1.615H0zM0 19.385h1.615V21H0zM17.77 0v1.615h-1.616V0zM16.154 0v1.615h-1.615V0zM14.539 0v1.615h-1.615V0zM12.923 0v1.615h-1.615V0zM11.308 0v1.615H9.693V0zM9.692 0v1.615H8.077V0zM8.077 0v1.615H6.462V0zM6.462 0v1.615H4.847V0zM4.846 0v1.615H3.231V0zM3.23 0v1.615H1.617V0zM19.385 1.616V3.23H17.77V1.616zM4.847 3.23v1.615H3.232V3.23zM4.846 1.615V3.23H3.231V1.615zM4.846 4.846V6.46H3.23V4.846zM16.154 3.23v1.616H14.54V3.23zM16.154 1.615V3.23h-1.615V1.615zM16.153 4.846V6.46H14.54V4.846zM12.924 3.23v1.615h-1.615V3.23zM12.923 1.615V3.23h-1.615V1.615zM12.923 4.846V6.46h-1.615V4.846zM16.154 6.462v1.615h-1.615V6.462zM14.538 6.462v1.615h-1.615V6.462zM12.923 6.462v1.615h-1.615V6.462zM11.308 6.462v1.615H9.693V6.462zM9.692 6.462v1.615H8.077V6.462zM8.077 6.462v1.615H6.462V6.462zM6.461 6.462v1.615H4.846V6.462zM4.846 6.462v1.615H3.231V6.462zM17.769 11.307v1.615h-1.615v-1.615zM16.153 11.308v1.615h-1.615v-1.615zM14.538 11.308v1.615h-1.615v-1.615zM12.923 11.308v1.614h-1.615v-1.615zM11.307 11.308v1.615H9.692v-1.615zM9.692 11.307v1.615H8.077v-1.615zM8.076 11.308v1.615H6.461v-1.615zM6.461 11.308v1.615H4.846v-1.615zM4.846 11.307v1.615H3.23v-1.615zM17.77 12.923v1.615h-1.616v-1.615zM4.846 12.923v1.615H3.231v-1.615zM17.77 14.538v1.615h-1.616v-1.615zM4.846 14.538v1.615H3.231v-1.615zM17.77 16.154v1.615h-1.615v-1.615zM4.846 16.154v1.615H3.231v-1.615zM4.846 17.77v1.614H3.23V17.77zM17.769 17.77v1.614h-1.615V17.77zM19.384 19.385V21H17.77v-1.615zM17.77 19.384V21h-1.616v-1.615zM16.154 19.385V21h-1.615v-1.615zM14.538 19.385V21h-1.615v-1.615zM12.923 19.385V21h-1.615v-1.615zM11.307 19.385V21H9.692v-1.615zM9.692 19.385V21H8.077v-1.615zM8.077 19.385V21H6.462v-1.615zM6.461 19.385V21H4.846v-1.615zM4.846 19.385V21H3.231v-1.615zM3.23 19.385V21H1.617v-1.615zM21 21h-1.615v-1.615H21zM21 19.385h-1.615V17.77H21zM21 17.769h-1.615v-1.615H21zM21 16.155h-1.615V14.54H21zM21 14.538h-1.615v-1.615H21zM21 12.923h-1.615v-1.615H21zM21 11.307h-1.615V9.692H21zM21 9.693h-1.615V8.078H21zM21 8.077h-1.615V6.462H21zM21 6.462h-1.615V4.847H21zM21 4.845h-1.615V3.23H21z"/>
  </symbol>
  
  <symbol id="icon-floppy-big" viewBox="0 0 64 64">
    <path fill="currentColor" d="M0 0h5.161v5.161H0zM0 5.161h5.161v5.161H0zM0 10.322h5.161v5.161H0zM0 15.483h5.161v5.161H0zM0 20.644h5.161v5.161H0zM0 25.805h5.161v5.161H0zM0 30.966h5.161v5.161H0zM0 36.127h5.161v5.161H0zM0 41.288h5.161v5.161H0zM0 46.449h5.161v5.161H0zM0 51.61h5.161v5.161H0zM0 56.771h5.161v5.161H0zM0 61.932h5.161V67.093H0zM56.771 0v5.161h-5.161V0zM51.61 0v5.161h-5.161V0zM46.449 0v5.161h-5.161V0zM41.288 0v5.161h-5.161V0zM36.127 0v5.161h-5.161V0zM30.966 0v5.161h-5.161V0zM25.805 0v5.161h-5.161V0zM20.644 0v5.161h-5.161V0zM15.483 0v5.161h-5.161V0zM10.322 0v5.161H5.161V0zM61.932 5.161v5.161h-5.161V5.161zM15.483 10.322v5.161h-5.161v-5.161zM15.483 5.161v5.161h-5.161V5.161zM15.483 15.483v5.161h-5.161v-5.161zM51.61 10.322v5.161h-5.161v-5.161zM51.61 5.161v5.161h-5.161V5.161zM51.61 15.483v5.161h-5.161v-5.161zM41.288 10.322v5.161h-5.161v-5.161zM41.288 5.161v5.161h-5.161V5.161zM41.288 15.483v5.161h-5.161v-5.161zM51.61 20.644v5.161h-5.161v-5.161zM46.449 20.644v5.161h-5.161v-5.161zM41.288 20.644v5.161h-5.161v-5.161zM36.127 20.644v5.161h-5.161v-5.161zM30.966 20.644v5.161h-5.161v-5.161zM25.805 20.644v5.161h-5.161v-5.161zM20.644 20.644v5.161h-5.161v-5.161zM15.483 20.644v5.161h-5.161v-5.161zM56.771 36.127v5.161h-5.161v-5.161zM51.61 36.127v5.161h-5.161v-5.161zM46.449 36.127v5.161h-5.161v-5.161zM41.288 36.127v5.161h-5.161v-5.161zM36.127 36.127v5.161h-5.161v-5.161zM30.966 36.127v5.161h-5.161v-5.161zM25.805 36.127v5.161h-5.161v-5.161zM20.644 36.127v5.161h-5.161v-5.161zM15.483 36.127v5.161h-5.161v-5.161zM56.771 41.288v5.161h-5.161v-5.161zM15.483 41.288v5.161h-5.161v-5.161zM56.771 46.449v5.161h-5.161v-5.161zM15.483 46.449v5.161h-5.161v-5.161zM56.771 51.61v5.161h-5.161v-5.161zM15.483 51.61v5.161h-5.161v-5.161zM15.483 56.771v5.161h-5.161v-5.161zM56.771 56.771v5.161h-5.161v-5.161zM61.932 61.932V67.093h-5.161v-5.161zM56.771 61.932V67.093h-5.161v-5.161zM51.61 61.932V67.093h-5.161v-5.161zM46.449 61.932V67.093h-5.161v-5.161zM41.288 61.932V67.093h-5.161v-5.161zM36.127 61.932V67.093h-5.161v-5.161zM30.966 61.932V67.093h-5.161v-5.161zM25.805 61.932V67.093h-5.161v-5.161zM20.644 61.932V67.093h-5.161v-5.161zM15.483 61.932V67.093h-5.161v-5.161zM10.322 61.932V67.093H5.161v-5.161zM67.093 67.093h-5.161v-5.161h5.161zM67.093 61.932h-5.161v-5.161h5.161zM67.093 56.771h-5.161v-5.161h5.161zM67.093 51.61h-5.161v-5.161h5.161zM67.093 46.449h-5.161v-5.161h5.161zM67.093 41.288h-5.161v-5.161h5.161zM67.093 36.127h-5.161v-5.161h5.161zM67.093 30.966h-5.161v-5.161h5.161zM67.093 25.805h-5.161v-5.161h5.161zM67.093 20.644h-5.161v-5.161h5.161zM67.093 15.483h-5.161v-5.161h5.161zM67.093 10.322h-5.161V5.161h5.161z"/>
  </symbol>
</svg>